<svg xmlns="http://www.w3.org/2000/svg" fill="current" viewBox="0 0 355.78 387.09">
  <g id="Warstwa_2" data-name="Warstwa 2">
    <g id="Warstwa_1-2" data-name="Warstwa 1">
      <path d="M194.16.52C184.91,2,177,8,174.67,15.24c-1.5,4.76-.94,5.91,1.39,2.86,6.56-8.57,10.53-10.42,22.32-10.38,18.19.07,28.47,8.22,28.47,22.57,0,8.55-.17,8.79-19.15,27.59-37.77,37.41-53.94,67-60.58,110.86-.69,4.53-1.56,10.25-2,12.7-1.85,11.81-2.49,34.7-1.41,50.45,2.31,33.56-2.23,48.87-18.44,62.26-17.07,14.12-46.63,9-53.47-9.32-9-24.06-3.72-41.74,17.9-59.91,12.17-10.24-6.5-2.43-21.84,9.13-13.59,10.24-41.31,33.62-47.14,39.76C-2.08,297.86-6.9,335.54,10.44,354.43l3.44,3.75-.33-7.83c-1-24.57,36.88-32,83.67-16.46,23.79,7.92,27.09,36.1,5.32,45.47-7.09,3.06-9.22,4.3-10.36,6.05l-1.09,1.68H97c10.58,0,14.79-1.06,25.37-6.33,41.34-20.59,70-54.81,82.1-98.16,4.52-16.17,10.82-25.76,21.63-33,18.13-12.05,30.38-13.18,36-3.32l1.88,3.31.37,30.71c.4,32.33.42,32.6,3.58,34,2.46,1.12,80,1.15,83,0,4.4-1.67,6.72-11.32,3.3-13.72-2-1.43-3.77-.89-6.66,2.09l-2.38,2.45-3.38-3.46c-8.14-8.3-7.71-2.15-7.61-109.46.1-104.08.71-94.4-6.25-98.11-5.15-2.75-9.95-7.91-13.33-14.34-20-38.13-45.71-61.92-79.4-73.63C220.45,1.14,204.36-1.11,194.16.52Zm25.91,72.64c-1.85,4.29-6.42,8.81-15.54,15.35-3.65,2.62-7.06,5.8-8.4,7.81-2.75,4.16-2.93,2.54-.47-4.43,3.11-8.79,10-17.81,21.45-27.94l4.12-3.65.22,4.56A16.62,16.62,0,0,1,220.07,73.16ZM267.91,64c4.23,2.61,16.28,15.85,21.14,23.24a41.6,41.6,0,0,1,6.32,15.41c.61,2.89,2.39,3.32,5.73,1.4,4.37-2.51,7.06-2.14,8.83,1.22.87,1.65,1.28,37.74.44,39.1-.44.72.92,58.3,1.88,79,.78,16.9,1.39,26.77,3.34,53.56,1.63,22.48,1.58,24.55-.7,25.59s-3.78,0-4.43-3.25c-.87-4.35-1.95-4.69-3.73-1.18-4.82,9.52-18.59,8-24.21-2.65-2.64-5-3.32-44.4-.92-53,5.89-21,6-22.45,5.67-75.31-.35-55.55.47-52.66-16.23-56.63-18.26-4.34-26.13-.65-41,19.22C193,179.51,185.35,209,200.92,243c5.66,12.36,4.36,18.38-5.16,23.81a15.38,15.38,0,0,0-4.3,5c-5.21,9.33-10.11.53-6.51-11.67,2.07-7,2-18.59-.08-30.71-9.46-54.24-5.76-78.35,16.2-105.71,3.27-4.07,10.07-13.19,15.11-20.27C242.59,66.36,255.63,56.42,267.91,64Zm-81.13,42.21c1.85,11-3,26.76-12.53,40.66-5.43,7.92-6.35,12.81-3.11,16.36,4.17,4.55,4,2.67,4,53.2,0,57.69-.48,61.08-9.28,69.87-2.65,2.65-3.43,4-3.44,5.85a9.72,9.72,0,0,1-1.4,4.53l-1.39,2.12-1.52-2.5c-3.62-6-3.42-11.52.71-19.91l3.23-6.55.17-47.56c.1-27.73.51-50.38,1-54.31a173.39,173.39,0,0,0,.63-18l-.16-11.23,2.65-5.62a88,88,0,0,1,7-11.61c4.56-6.31,5-7.1,6.32-12.13C181.18,103.5,186,101.38,186.78,106.23Zm66.58,16.08c5,2.35,4.95,2.27,4.95,34.61,0,47.57,1.45,45.48-35.17,50.73-2.76.4-5.22-.83-6-3s.21-21.42,1.55-28.1c4.37-21.88,10.58-34.88,23.05-48.24C248.55,120.93,249.47,120.46,253.36,122.31ZM327,223.62c.19,78.45.18,78.83-1.31,78.83s-1.5-.44-1.5-79.08c0-74.92.07-79.07,1.31-78.83S326.86,149.23,327,223.62ZM261.62,211c6,.68,8.63,1.88,10.65,5l1.25,1.9,1.2-3.6c1.75-5.28,4.24-5.51,5-.47,1.48,9.77.24,11.11-8.24,8.9-7.1-1.85-17.94-2.33-20-.89a8.21,8.21,0,0,1-4,1.22,20.55,20.55,0,0,0-6.39,2c-15.52,7.32-30.85,10.22-33,6.24-1.95-3.64,13.07-12,26.78-14.94,2-.42,4.35-.94,5.29-1.16a3.92,3.92,0,0,0,2.42-2.24,2.54,2.54,0,0,1,2.24-1.85c2,0,2.75,2,1.56,3.92-1.71,2.74-.37,2.06,3.32-1.69,2.46-2.49,4.09-3.59,4.94-3.32A67.23,67.23,0,0,0,261.62,211Zm-218,79.62c2.85,8.56-2.12,13.84-24.5,26-6.77,3.68-7.13,3.6-5.3-1.21,3.29-8.6,6.33-11.78,14.62-15.28S38,295.38,39.7,288.8C40.79,284.55,41.74,285,43.62,290.63ZM147.9,314c3.23,3.23,3.2,5-.13,8.65-13.23,14.65-28.6,11.36-23.44-5,.82-2.63,1-2.71,5.51-2.5a20.39,20.39,0,0,0,7.5-1.74C143.36,310.86,144.86,311,147.9,314Z" style="fill-rule: evenodd"/>
    </g>
  </g>
</svg>
